<?xml version="1.0" standalone="no"?>
<!DOCTYPE svg PUBLIC "-//W3C//DTD SVG 20010904//EN"
 "http://www.w3.org/TR/2001/REC-SVG-20010904/DTD/svg10.dtd">
<svg version="1.0" xmlns="http://www.w3.org/2000/svg"
 width="1500.000000pt" height="600.000000pt" viewBox="0 0 1500.000000 600.000000"
 preserveAspectRatio="xMidYMid meet">
<metadata>
Created by potrace 1.16, written by Peter Selinger 2001-2019
</metadata>
<g transform="translate(0.000000,600.000000) scale(0.100000,-0.100000)"
fill="#000000" stroke="none">
<path d="M5775 4793 c-4 -11 -16 -23 -27 -26 -11 -3 -22 -15 -25 -26 -4 -17
-13 -21 -42 -21 -20 0 -42 5 -49 12 -9 9 -12 9 -12 1 0 -7 -8 -14 -19 -18 -17
-5 -17 -9 -6 -43 12 -33 11 -37 -3 -41 -9 -2 -18 1 -20 7 -2 6 -16 -3 -32 -21
-28 -31 -29 -31 -43 -13 -13 18 -12 22 6 36 20 16 19 17 -23 23 -25 3 -50 13
-57 23 -14 19 -15 19 -32 -13 -14 -27 -27 -29 -34 -5 -2 9 -8 25 -12 35 -5 13
-2 17 14 17 14 0 23 8 27 25 8 31 6 33 -35 45 -28 8 -31 7 -21 -5 7 -8 22 -15
34 -15 20 -1 19 -2 -6 -25 -21 -18 -28 -33 -28 -60 0 -31 -3 -35 -25 -35 -32
0 -33 -29 -5 -88 26 -53 25 -62 -5 -62 -17 0 -29 9 -39 29 -9 16 -23 31 -32
35 -16 6 -16 35 1 81 4 11 -3 5 -15 -13 -21 -31 -26 -33 -73 -30 -29 2 -52 8
-55 15 -5 18 27 28 49 15 29 -18 37 24 10 51 l-21 21 -23 -22 c-28 -26 -33
-27 -41 -6 -8 21 11 44 35 44 28 0 23 17 -6 24 -33 8 -45 1 -45 -30 0 -25 -5
-26 -72 -7 -10 2 -18 -1 -18 -8 0 -13 -29 -38 -45 -39 -16 0 -41 73 -26 78 23
8 11 32 -16 32 -16 0 -23 -4 -17 -8 6 -4 17 -38 25 -77 7 -38 17 -73 22 -76 6
-4 7 -19 5 -33 -4 -20 -1 -26 13 -26 24 0 88 -42 89 -57 0 -7 6 -13 14 -13 13
0 26 -20 26 -39 0 -12 -74 -59 -105 -67 -18 -4 -32 -1 -45 11 -24 22 -25 32
-5 51 8 9 15 22 15 30 0 18 -46 37 -71 29 -14 -5 -19 -1 -19 13 0 13 11 22 38
29 l37 11 -34 -2 c-45 -1 -50 19 -10 39 l32 17 -34 16 c-19 9 -37 21 -41 27
-5 6 -8 6 -8 -2 0 -25 -38 -13 -51 15 -10 23 -18 27 -55 29 -32 1 -44 -2 -44
-13 0 -8 -4 -14 -10 -14 -5 0 -20 -10 -31 -21 -18 -18 -25 -20 -40 -11 -14 9
-25 9 -43 1 -30 -14 -58 -5 -50 16 3 8 1 15 -5 15 -6 0 -11 -6 -11 -12 -1 -20
-44 -64 -81 -83 -19 -10 -36 -21 -39 -25 -3 -3 -24 -14 -47 -23 -48 -19 -55
-14 -55 40 0 44 24 72 46 54 12 -10 19 -8 35 8 26 26 27 47 1 54 -11 3 -20 13
-20 22 0 14 -3 13 -18 -6 -11 -13 -25 -37 -33 -54 -17 -36 -45 -44 -54 -15 -4
13 1 34 14 56 12 19 21 38 21 42 -1 13 -40 -40 -40 -54 0 -22 -38 5 -43 31 -3
15 -5 13 -6 -7 -1 -21 -6 -28 -21 -28 -13 0 -20 -7 -20 -20 0 -16 7 -20 33
-20 17 0 37 -4 43 -8 20 -14 42 -78 47 -141 5 -56 3 -64 -14 -68 -15 -4 -16
-9 -8 -24 9 -17 6 -19 -31 -19 -29 0 -40 4 -40 15 0 10 -10 15 -30 15 -32 0
-50 26 -50 71 0 22 25 26 34 4 8 -22 21 -18 34 10 13 28 6 55 -14 55 -20 0
-35 36 -28 65 4 15 2 25 -5 25 -6 0 -11 -7 -11 -15 0 -8 -7 -15 -15 -15 -8 0
-15 -7 -15 -15 0 -12 -7 -14 -26 -9 l-26 7 16 -31 c20 -39 20 -39 -4 -45 -11
-3 -20 -12 -20 -21 0 -9 -7 -16 -15 -16 -8 0 -15 -5 -15 -11 0 -7 10 -9 25 -5
34 9 33 -13 -2 -49 -26 -25 -26 -27 -6 -21 12 4 31 1 42 -6 20 -12 20 -13 -5
-45 -26 -35 -46 -101 -26 -89 7 4 12 19 12 33 0 16 14 38 38 61 l37 37 3 -27
c2 -19 8 -25 18 -21 20 7 56 -38 42 -54 -12 -15 -38 -17 -38 -4 0 4 -11 6 -25
4 -34 -7 -41 -37 -15 -70 16 -20 18 -28 8 -35 -22 -13 -38 -9 -38 11 0 28 -43
51 -90 49 -22 -1 -43 -5 -46 -10 -10 -15 7 -68 22 -68 8 0 23 -9 34 -20 25
-25 48 -25 74 0 12 10 38 26 59 35 l38 16 -6 -46 c-5 -30 -4 -45 4 -45 6 0 11
15 11 33 0 18 7 43 16 56 l16 23 22 -44 c11 -24 31 -47 44 -53 20 -9 22 -17
22 -85 0 -94 -8 -108 -44 -85 -30 20 -30 18 -14 61 7 20 20 35 32 37 20 4 20
4 -1 6 -14 0 -29 -9 -39 -24 -20 -30 -31 -32 -39 -4 -7 21 -32 21 -27 -1 1 -7
-2 -18 -8 -25 -8 -9 -6 -17 6 -29 9 -9 13 -24 10 -33 -8 -21 -92 -12 -189 20
-55 18 -67 26 -66 42 1 11 1 26 0 33 -1 16 -63 16 -79 0 -14 -14 -24 -6 -46
37 -15 28 -14 30 7 42 21 13 21 13 -5 7 -23 -5 -32 0 -55 26 -14 18 -32 38
-39 44 -9 10 -9 19 2 44 15 37 29 40 60 11 l22 -21 12 21 c6 12 15 19 21 16 5
-4 9 -2 9 3 0 5 -18 15 -40 22 -35 11 -40 17 -40 42 0 32 -16 34 -34 5 -8 -13
-8 -20 2 -26 19 -12 3 -41 -23 -41 -14 0 -30 -11 -40 -27 l-18 -27 -32 37 -31
36 0 -34 c1 -27 6 -35 25 -40 18 -5 22 -11 17 -28 -3 -12 -6 -30 -6 -39 0 -22
-38 -24 -46 -3 -4 8 -15 15 -25 15 -25 0 -24 26 1 33 11 3 20 10 20 15 0 12
-72 -7 -82 -23 -4 -5 -8 -20 -8 -32 0 -16 -8 -25 -25 -29 -25 -6 -30 -18 -26
-62 1 -13 -4 -31 -11 -39 -11 -14 -11 -15 8 -5 12 6 24 8 28 5 8 -9 8 -40 -1
-46 -5 -2 -1 -2 7 1 8 3 31 8 50 12 22 5 27 8 13 9 -26 1 -83 47 -83 68 0 17
35 9 58 -13 17 -17 27 -18 40 -1 15 17 102 10 102 -9 0 -8 -7 -14 -15 -14 -8
0 -19 -9 -25 -20 -6 -11 -21 -21 -33 -21 -20 -1 -20 -2 -2 -6 31 -8 45 -23 45
-49 0 -17 -6 -24 -20 -24 -11 0 -20 -5 -20 -11 0 -6 9 -8 20 -4 16 5 20 2 20
-17 -1 -35 -25 -61 -49 -53 -23 7 -26 17 -11 45 9 17 5 20 -49 26 -55 6 -60 9
-63 33 -2 19 -10 27 -27 29 -37 6 -68 -6 -74 -28 -3 -11 -19 -25 -35 -31 -36
-12 -46 -42 -23 -63 22 -20 41 -21 41 -2 0 10 14 13 54 12 46 -1 57 3 73 23
26 32 45 23 65 -28 l16 -41 -30 -22 c-30 -20 -31 -21 -44 -3 -11 15 -16 16
-29 5 -14 -12 -22 -60 -9 -60 3 0 14 5 25 10 17 10 19 7 19 -20 0 -20 -5 -30
-15 -30 -8 0 -15 -7 -15 -16 0 -20 60 -80 76 -76 25 5 24 -17 -1 -34 -30 -19
-32 -44 -7 -67 24 -22 35 -21 57 3 15 17 16 24 6 46 -14 31 1 47 58 63 44 13
48 10 53 -39 3 -31 0 -41 -13 -45 -27 -9 -30 -31 -8 -59 16 -21 24 -24 39 -16
28 15 33 12 26 -15 -5 -18 -2 -25 9 -25 8 0 15 -4 15 -10 0 -5 7 -10 15 -10
11 0 15 -11 15 -39 0 -22 -7 -46 -15 -55 -20 -20 -19 -38 5 -59 26 -22 29 -21
51 5 24 27 24 45 -1 53 -15 5 -20 15 -20 43 0 20 -3 47 -6 60 -6 19 -3 22 23
22 16 0 34 5 40 11 19 19 48 6 53 -25 3 -16 15 -35 27 -43 20 -13 23 -12 33 8
9 17 9 27 0 48 -7 14 -20 41 -29 60 -9 19 -26 44 -38 57 -25 25 -29 44 -12 61
16 16 2 33 -27 33 -21 0 -24 5 -24 35 0 46 53 105 120 134 l51 22 29 -23 c57
-46 60 -91 13 -178 -14 -25 -18 -36 -9 -26 9 11 16 23 16 28 0 4 7 8 15 8 17
0 59 -86 51 -105 -5 -15 -54 -26 -62 -14 -3 5 -14 9 -25 9 -14 0 -19 -7 -19
-30 0 -33 11 -38 30 -15 21 25 37 17 54 -25 9 -23 23 -43 31 -46 8 -4 12 -10
9 -15 -11 -18 16 -8 59 21 25 17 48 30 51 30 4 0 -2 -17 -13 -37 -20 -41 -61
-83 -61 -65 0 17 -26 15 -44 -3 -8 -8 -21 -15 -29 -15 -18 0 -27 -32 -15 -54
7 -12 4 -18 -9 -23 -15 -6 -12 -8 12 -13 25 -4 30 -10 30 -35 1 -19 8 -33 21
-40 23 -12 20 -39 -7 -66 -10 -10 -19 -25 -19 -32 0 -19 21 -37 43 -37 33 0
48 -25 41 -67 -4 -30 -2 -42 11 -53 9 -7 22 -28 30 -47 16 -38 39 -51 60 -33
12 10 18 10 29 1 11 -9 20 -10 36 -1 11 6 31 10 43 8 19 -3 22 2 25 33 2 24
13 45 32 64 l30 29 24 -23 c20 -19 23 -30 19 -57 -3 -20 -1 -40 7 -49 8 -9 10
-28 5 -55 -4 -23 -3 -46 3 -53 5 -7 13 -22 16 -34 6 -18 3 -23 -12 -23 -41 0
-52 -51 -17 -80 11 -9 21 -3 50 29 46 51 70 59 93 32 29 -34 66 -37 90 -7 23
30 40 33 57 10 15 -22 49 -11 63 20 12 27 0 46 -30 46 -14 0 -17 7 -15 38 1
20 -2 48 -7 61 -7 19 -5 23 7 18 8 -3 20 0 26 6 10 9 17 7 32 -11 10 -13 24
-22 31 -19 7 2 29 -9 49 -24 32 -25 37 -27 51 -13 14 14 18 9 37 -54 16 -52
21 -97 21 -174 0 -62 7 -130 16 -171 16 -64 16 -72 0 -129 -10 -36 -21 -131
-26 -232 -6 -94 -20 -245 -32 -335 -21 -158 -21 -166 -5 -275 14 -93 16 -161
11 -421 l-7 -310 -35 -92 c-28 -77 -42 -99 -77 -127 -63 -52 -104 -73 -169
-86 -33 -7 -66 -18 -74 -26 -7 -8 -19 -14 -26 -14 -7 0 -21 -10 -32 -21 -10
-12 -44 -39 -76 -60 -63 -43 -118 -104 -118 -132 0 -16 7 -18 50 -15 41 2 50
0 50 -13 0 -20 23 -31 48 -23 56 19 124 60 169 102 30 29 65 52 84 56 56 11
59 9 48 -26 -17 -59 -12 -85 17 -92 36 -10 82 22 124 86 25 37 45 56 68 63 17
5 32 12 32 16 0 4 21 13 46 20 46 14 104 66 104 93 0 8 6 19 14 25 20 17 49
-2 90 -59 27 -37 43 -49 88 -63 116 -36 207 -85 234 -127 44 -66 137 -117 168
-91 16 14 7 68 -18 106 -36 55 -6 47 79 -22 73 -58 112 -80 155 -83 44 -4 50
-1 50 25 0 37 -23 68 -88 117 -31 24 -82 64 -113 89 -35 28 -74 50 -105 58
-27 7 -62 18 -79 24 -40 15 -123 101 -131 135 -3 15 -14 45 -24 67 -47 107
-49 118 -49 429 0 166 4 319 10 349 22 113 27 165 18 213 -20 104 -41 286 -51
449 -18 270 -16 320 12 400 13 39 27 75 31 80 3 6 14 44 24 85 12 51 30 91 54
125 20 28 45 70 56 95 10 25 25 50 32 56 7 6 13 16 13 23 0 6 9 11 19 11 11 0
23 5 26 10 11 19 33 10 39 -15 4 -14 13 -28 22 -32 20 -8 55 31 57 64 2 21 -3
26 -23 28 -13 1 -31 -4 -38 -12 -20 -20 -28 -16 -42 18 -12 27 -11 36 5 65 24
44 50 45 59 2 5 -26 9 -30 16 -18 5 8 10 29 10 46 0 41 22 85 40 82 8 -2 18
-20 23 -41 11 -47 41 -66 57 -37 9 16 6 24 -13 44 -14 14 -24 36 -24 50 0 15
-10 34 -24 45 l-24 19 28 13 c25 11 29 10 43 -9 17 -25 52 -29 60 -7 8 21 25
18 55 -9 48 -42 45 -92 -6 -126 -28 -18 -28 -20 -7 -20 28 0 29 -21 1 -38 -12
-7 -18 -16 -15 -19 3 -3 20 7 38 22 l33 28 5 -54 c4 -43 7 -49 13 -31 11 28
33 28 48 0 9 -17 9 -23 -1 -26 -7 -3 -21 -13 -31 -23 -10 -10 -34 -22 -54 -28
-33 -9 -37 -8 -45 15 -6 14 -18 24 -30 24 -24 0 -26 22 -5 40 19 15 19 30 2
30 -18 0 -41 -48 -38 -77 2 -16 -5 -26 -23 -34 -33 -15 -40 -37 -21 -65 20
-31 27 -30 68 6 42 37 57 37 85 5 17 -19 28 -24 46 -19 19 4 26 1 31 -16 5
-15 11 -19 23 -14 10 4 29 8 45 9 15 2 31 3 36 4 11 1 26 41 23 55 -4 13 27
76 37 76 5 0 14 -7 21 -15 10 -13 11 -24 1 -57 -10 -33 -10 -46 0 -65 16 -30
21 -29 58 12 26 30 29 39 20 57 -6 11 -9 31 -6 44 2 14 0 27 -4 30 -13 8 -10
47 5 67 21 28 47 22 44 -10 -1 -16 3 -37 9 -48 7 -12 15 -50 19 -85 4 -36 10
-57 12 -47 2 12 10 17 21 14 13 -3 16 3 13 32 -1 20 -3 54 -3 76 -1 26 -10 52
-25 72 -16 21 -20 34 -13 39 6 3 8 15 6 26 -3 11 3 39 12 62 14 32 28 46 60
60 23 11 42 17 44 15 1 -2 7 -13 13 -24 8 -14 20 -19 38 -17 27 3 35 -15 15
-35 -18 -18 -7 -58 15 -56 17 1 18 -4 12 -75 -4 -43 -9 -86 -11 -97 -2 -11 -4
-28 -4 -37 -1 -9 -11 -18 -23 -20 -29 -4 -32 -46 -5 -62 16 -9 22 -7 34 12 9
12 24 22 34 22 10 0 20 4 23 9 3 5 18 12 32 15 21 6 33 1 55 -20 34 -32 57
-26 65 16 7 34 23 48 34 31 9 -15 57 -41 75 -41 8 0 21 7 30 17 20 19 12 83
-11 96 -8 4 -14 19 -14 32 0 63 -23 70 -69 20 -18 -20 -37 -33 -43 -29 -7 5 2
19 26 38 27 23 34 34 25 43 -8 8 -8 13 0 17 15 9 14 32 -2 48 -28 29 -44 65
-51 111 -9 59 3 77 50 77 30 0 34 -3 34 -25 0 -14 -4 -25 -10 -25 -16 0 -12
-53 6 -79 l17 -23 24 26 c31 33 46 33 59 -2 7 -17 32 -43 62 -62 29 -18 52
-40 52 -49 0 -8 -12 -25 -27 -37 -25 -20 -26 -25 -15 -43 6 -11 12 -26 12 -32
0 -14 56 -69 69 -69 6 0 18 14 28 30 19 33 32 37 52 18 10 -11 16 -8 31 12 35
46 33 104 -4 131 -14 11 4 69 22 69 49 1 71 63 28 80 -13 5 -39 24 -58 42 -19
18 -49 41 -67 51 -26 13 -32 22 -28 38 8 29 -2 49 -23 49 -23 0 -37 18 -42 58
-3 23 -1 32 10 32 18 0 78 -62 87 -89 3 -11 12 -18 19 -15 8 3 19 -15 31 -51
14 -40 24 -55 37 -55 15 0 17 3 8 19 -18 35 -12 41 44 41 63 0 83 -15 61 -47
-13 -19 -13 -25 0 -56 18 -43 27 -49 60 -41 17 4 25 13 25 28 -1 23 -32 66
-49 66 -6 0 -11 9 -11 20 0 22 -28 40 -60 40 -17 0 -20 4 -15 18 4 9 10 29 12
44 4 23 2 26 -15 22 -15 -5 -20 1 -25 24 -3 16 -24 49 -46 72 -22 24 -43 48
-45 54 -3 7 -8 7 -14 -2 -12 -18 -40 -4 -57 29 -20 38 -19 42 9 37 24 -5 46
17 46 46 0 14 -21 26 -46 26 -19 0 -44 -52 -37 -78 5 -19 1 -22 -24 -22 -26 0
-29 4 -39 45 -6 25 -7 45 -2 45 4 0 8 6 8 14 0 7 7 19 15 26 12 10 16 9 21 -4
6 -15 8 -15 21 3 10 15 11 26 3 40 -15 30 -12 51 8 51 13 0 22 -12 30 -37 9
-32 10 -33 7 -8 -2 17 -10 48 -18 70 -26 72 -29 120 -9 146 16 19 30 23 100
25 81 4 82 3 82 -21 0 -13 5 -27 10 -30 15 -9 0 -85 -22 -107 -15 -15 -17 -23
-8 -33 8 -10 8 -19 1 -34 -6 -11 -11 -31 -11 -44 0 -14 -6 -30 -14 -37 -8 -6
-12 -18 -10 -25 3 -7 -4 -34 -15 -59 l-20 -46 24 0 c40 0 72 -17 79 -42 5 -19
8 -20 15 -8 14 20 -3 38 -51 52 -27 8 -37 16 -33 26 3 7 5 23 5 34 0 16 5 19
24 14 16 -4 30 0 40 10 22 21 20 32 -6 36 -15 2 -24 11 -26 27 -5 34 7 74 21
68 7 -3 29 -12 50 -21 33 -14 37 -14 37 -1 0 9 -9 15 -25 15 -16 0 -25 6 -25
15 0 8 5 15 10 15 6 0 10 6 10 14 0 8 11 17 25 20 37 9 45 53 14 77 -19 14
-22 20 -11 30 31 32 -9 72 -54 55 -17 -7 -44 9 -44 26 0 5 13 14 29 19 39 14
32 53 -13 70 -70 28 -73 28 -85 3 -12 -26 -41 -33 -41 -9 0 8 -9 19 -20 25
-24 13 -25 4 -10 -52 9 -30 8 -42 -6 -63 -14 -21 -24 -25 -64 -25 -45 0 -49 2
-55 29 -9 43 14 110 44 127 14 8 19 14 11 13 -32 -3 -40 2 -40 26 0 14 -4 25
-9 25 -5 0 -7 -23 -4 -53 5 -47 2 -56 -22 -85 -19 -23 -22 -32 -12 -32 14 0
27 -28 27 -62 0 -11 -8 -18 -20 -18 -13 0 -24 -10 -30 -25 -12 -31 -40 -33
-40 -4 0 12 8 23 20 26 16 4 20 14 20 44 0 37 -2 39 -30 39 -26 0 -31 5 -36
30 -4 16 -11 27 -16 24 -5 -3 -6 -14 -3 -24 5 -14 2 -17 -14 -13 -11 3 -28 0
-38 -6 -17 -10 -17 -10 1 -11 17 0 16 -2 -5 -18 -26 -21 -72 -36 -63 -21 3 5
-2 9 -10 9 -8 0 -17 -4 -20 -9 -4 -5 -24 -12 -45 -16 -30 -5 -41 -12 -45 -30
-7 -29 2 -55 20 -55 8 0 14 -7 14 -15 0 -8 -5 -15 -11 -15 -5 0 -7 -5 -4 -10
3 -6 0 -17 -8 -25 -9 -8 -17 -20 -19 -27 -4 -10 -10 -10 -30 0 -18 10 -37 11
-69 5 -44 -10 -46 -13 -34 -45 10 -26 -33 -24 -56 3 -21 25 -15 43 12 36 11
-3 19 -1 19 4 0 5 -6 9 -14 9 -17 0 -27 25 -21 53 3 12 7 42 9 66 7 61 25 111
53 149 l24 32 19 -22 18 -22 21 34 c26 43 26 51 1 57 -11 3 -20 9 -20 14 0 14
39 49 54 49 16 0 46 -26 46 -41 0 -5 -7 -9 -16 -9 -12 0 -14 -7 -9 -32 19 -84
31 -94 70 -52 24 26 24 54 -1 54 -17 0 -31 26 -35 65 -4 29 -3 30 53 39 32 4
64 6 71 3 17 -7 45 -64 52 -109 4 -25 11 -38 22 -38 24 0 8 62 -30 116 -28 40
-30 47 -18 66 l13 21 -29 -20 c-15 -11 -58 -25 -94 -32 -82 -14 -79 -14 -79 3
0 8 -15 19 -34 26 -36 12 -46 30 -46 89 0 25 11 49 40 87 22 29 40 56 40 60 0
5 -67 -79 -74 -93 -5 -8 -86 24 -86 34 0 9 -8 11 -25 7 -15 -4 -25 -2 -25 5 0
6 -7 11 -15 11 -8 0 -15 9 -15 20 0 17 7 20 40 20 37 0 52 11 31 24 -13 9 -53
9 -78 1 -16 -5 -22 -2 -26 12 -3 12 -5 9 -6 -9 0 -16 -7 -28 -13 -28 -7 -1 -1
-8 15 -16 40 -22 37 -63 -7 -89 l-35 -20 21 -25 20 -25 15 23 c18 26 58 29 67
5 4 -9 9 -42 13 -73 4 -46 1 -64 -17 -99 -12 -24 -32 -54 -45 -67 -22 -22 -30
-23 -102 -18 -152 10 -164 13 -161 37 2 18 -3 23 -32 27 -19 3 -50 0 -68 -7
-32 -13 -33 -13 -38 16 -6 28 -32 54 -83 80 -15 8 -21 9 -17 2 4 -6 20 -18 37
-26 27 -15 42 -55 19 -55 -28 0 2 -118 33 -129 18 -7 25 -3 41 23 10 17 22 42
26 56 9 34 42 33 54 -1 7 -21 3 -34 -26 -75 -41 -57 -77 -117 -55 -91 8 9 19
17 24 17 13 0 33 -45 33 -77 0 -23 -3 -24 -27 -17 -16 4 -43 7 -60 7 -35 -2
-38 4 -33 69 3 47 -9 70 -34 66 -30 -4 -56 18 -56 48 0 26 18 31 39 12 8 -7 6
-1 -3 13 -26 42 -38 92 -23 101 7 5 0 8 -18 8 -16 0 -25 -4 -19 -8 6 -4 13
-17 16 -29 5 -17 2 -23 -11 -23 -9 0 -25 -6 -35 -13 -15 -11 -17 -17 -7 -35
10 -19 9 -22 -9 -22 -41 0 -84 70 -47 78 11 2 17 -3 17 -14 0 -34 12 -4 16 38
7 89 17 124 42 151 25 26 72 38 72 18 0 -16 -44 -58 -65 -63 -15 -3 -11 -6 13
-9 28 -5 32 -3 32 17 0 33 37 42 57 15 8 -12 19 -18 25 -15 8 5 6 11 -3 18
-23 17 -49 63 -49 85 0 11 -6 24 -14 28 -25 15 -29 51 -7 65 12 7 21 18 21 25
0 16 29 17 66 3 21 -8 31 -7 45 6 11 10 19 25 19 35 0 10 5 29 11 43 10 20 8
29 -8 50 l-20 25 -26 -28 c-13 -16 -28 -38 -32 -49 -3 -12 -16 -29 -29 -39
-12 -10 -33 -33 -46 -50 -13 -18 -29 -33 -35 -33 -22 0 -64 25 -68 42 -4 12
-11 15 -27 11 -21 -6 -23 -4 -17 27 4 18 7 36 7 41 0 22 29 6 51 -28 32 -49
49 -53 49 -14 0 27 -4 32 -30 38 -16 3 -30 12 -30 19 0 19 37 36 63 29 18 -5
19 -4 7 4 -13 10 -10 16 18 42 27 24 31 33 22 45 -7 7 -21 14 -31 14 -11 0
-19 7 -19 15 0 22 -18 18 -25 -5 -7 -21 -49 -28 -60 -10 -3 6 -15 10 -26 10
-11 0 -24 10 -29 23 l-9 22 -6 -22z m-1214 -269 c17 -15 20 -15 43 0 14 9 33
16 43 16 15 -1 15 -4 -6 -20 -13 -11 -31 -20 -41 -20 -14 0 -17 -5 -13 -21 4
-15 0 -27 -12 -35 -16 -12 -21 -11 -38 3 -18 17 -18 17 0 -14 18 -32 17 -33
-2 -47 -11 -9 -27 -16 -35 -16 -8 0 -33 -19 -57 -42 -36 -36 -43 -39 -49 -24
-5 14 -9 15 -15 4 -5 -7 -9 -23 -9 -35 0 -31 -12 -34 -53 -15 -35 17 -57 52
-57 93 0 26 37 25 45 -1 8 -24 53 -28 61 -5 4 8 12 15 20 15 8 0 14 -7 14 -15
0 -21 7 -19 51 16 32 25 39 37 39 65 0 22 6 37 15 40 8 4 15 14 15 24 0 22 10
50 18 50 3 0 14 -7 23 -16z m1148 -130 c6 -14 9 -30 6 -35 -10 -15 5 -10 23 7
14 15 17 15 29 -2 19 -26 16 -41 -12 -78 -14 -18 -25 -38 -25 -44 0 -7 -9 -12
-20 -12 -17 0 -19 5 -13 33 6 30 5 31 -11 18 -12 -11 -16 -23 -12 -43 5 -24 2
-28 -17 -28 -20 0 -25 8 -38 63 -15 63 -15 64 8 91 13 15 23 34 23 42 0 25 46
17 59 -12z m-609 -17 c0 -7 -13 -18 -30 -24 -33 -12 -40 -42 -16 -62 12 -10
18 -7 31 18 17 34 25 37 43 19 16 -16 15 -29 -6 -56 -18 -23 -22 -23 -100 -17
-54 5 -82 12 -82 20 0 23 107 115 134 115 15 0 26 -6 26 -13z m398 -27 c14
-30 35 -39 47 -20 11 18 25 10 25 -15 0 -16 -6 -25 -16 -25 -12 0 -14 -8 -9
-43 6 -41 6 -43 -27 -55 -68 -24 -97 -7 -98 58 0 37 38 129 55 130 6 0 16 -13
23 -30z m-758 -18 c0 -15 12 -38 27 -54 l27 -28 -18 -55 c-9 -30 -21 -57 -26
-60 -6 -4 -10 -13 -10 -21 0 -8 -8 -23 -17 -33 -17 -18 -21 -18 -134 24 -203
75 -243 110 -184 165 l26 24 25 -27 c14 -15 22 -32 19 -37 -3 -5 0 -18 7 -29
11 -18 13 -18 25 -3 17 24 16 62 -2 62 -18 0 -18 4 -3 46 14 41 55 53 80 24
22 -26 34 -25 54 4 11 18 27 26 52 28 48 4 52 2 52 -30z m640 -77 c6 4 10 -5
10 -24 0 -16 3 -37 7 -47 5 -14 2 -16 -23 -10 -26 6 -27 5 -11 -7 24 -19 23
-51 -2 -44 -31 8 -51 -11 -51 -50 0 -37 -23 -73 -47 -73 -19 0 -16 24 7 45 11
10 17 21 13 24 -13 10 -43 80 -43 101 0 21 24 27 35 10 5 -8 11 -8 20 0 7 6
19 8 27 5 11 -5 14 2 12 31 -4 45 3 59 21 44 8 -7 19 -9 25 -5z m-261 -42 c48
-34 51 -49 10 -58 -17 -4 -33 -13 -36 -21 -8 -21 27 -55 49 -48 15 4 18 0 18
-29 0 -23 -6 -37 -16 -41 -12 -4 -14 -14 -9 -36 4 -17 1 -62 -6 -101 -10 -57
-17 -74 -40 -90 -40 -28 -58 -24 -119 31 l-55 50 -3 151 c-2 84 -1 163 3 176
7 30 35 42 107 42 47 1 65 -4 97 -26z m546 -80 c19 -9 35 -23 35 -30 0 -7 5
-13 10 -13 6 0 10 -16 10 -35 0 -20 11 -82 25 -138 14 -56 23 -112 20 -124 -3
-13 5 -41 20 -69 19 -36 25 -62 25 -112 0 -62 -1 -64 -23 -58 -51 12 -94 37
-145 80 -29 24 -66 54 -82 66 -39 28 -39 61 1 99 41 39 34 56 -19 52 -32 -2
-42 1 -42 12 0 9 6 18 13 20 7 4 3 8 -10 12 -18 6 -23 15 -23 39 0 17 5 38 10
46 9 13 12 13 24 -2 17 -23 23 -23 36 1 14 28 3 49 -28 53 -25 3 -27 7 -27 48
l0 45 50 11 c69 17 79 16 120 -3z m-1197 -48 c-3 -14 -1 -25 3 -25 5 0 9 7 9
15 0 26 28 16 59 -22 28 -33 31 -35 31 -15 0 26 7 27 46 8 16 -8 45 -21 64
-30 40 -18 65 -54 75 -107 6 -32 4 -37 -17 -42 -48 -14 -85 -5 -156 34 -55 30
-76 48 -84 70 -8 23 -16 29 -39 29 -22 0 -34 8 -49 33 -31 50 -21 66 54 76 4
0 6 -10 4 -24z m1955 9 c71 -12 94 -78 67 -191 -11 -47 -16 -53 -39 -54 -23
-2 -24 -2 -3 -6 28 -6 31 -43 2 -43 -33 0 -70 22 -70 43 0 14 5 18 20 14 23
-6 27 11 5 20 -9 3 -21 -1 -28 -9 -7 -8 -24 -22 -39 -31 -16 -10 -28 -23 -28
-30 0 -7 18 -31 40 -52 22 -21 40 -44 40 -50 0 -5 -20 -21 -45 -34 -37 -20
-54 -23 -97 -18 -28 4 -57 2 -63 -3 -7 -5 -65 -12 -131 -14 -110 -4 -121 -3
-141 17 -13 11 -23 28 -23 37 0 9 -5 21 -10 26 -6 6 -21 49 -35 97 -23 77 -24
90 -11 102 20 21 22 20 77 -26 34 -28 49 -48 49 -65 0 -13 -4 -24 -10 -24 -14
0 -13 -31 2 -62 l12 -26 23 31 c27 36 28 50 8 67 -18 15 -20 30 -3 30 6 0 20
7 30 16 16 16 19 15 37 -7 17 -21 22 -22 45 -11 36 16 36 16 36 -17 0 -31 25
-64 43 -58 6 2 20 16 31 32 15 20 18 29 9 32 -7 3 -13 16 -13 29 0 15 -6 24
-15 24 -9 0 -15 9 -15 23 0 12 -7 40 -15 62 -19 55 -19 56 16 105 l31 43 87
-7 c47 -3 103 -9 124 -12z m-459 -56 c39 -45 45 -65 21 -74 -8 -4 -15 -17 -15
-31 0 -13 -5 -34 -11 -45 -10 -19 -13 -18 -55 23 -42 41 -44 46 -44 99 0 65 3
70 41 70 20 0 37 -12 63 -42z m-544 -10 c0 -24 -8 -69 -17 -100 -14 -44 -25
-60 -48 -72 l-30 -14 38 5 c41 6 51 -9 17 -27 -17 -9 -19 -17 -14 -48 6 -40
-10 -63 -53 -76 -18 -6 -23 -3 -27 16 -8 37 -4 92 7 106 6 8 6 12 -1 12 -5 0
-15 -13 -22 -29 -12 -30 -35 -46 -51 -35 -15 9 -10 63 9 83 9 10 27 31 40 46
12 15 28 25 36 22 15 -6 36 32 36 64 0 25 47 89 66 89 10 0 14 -13 14 -42z
m-984 -83 c9 -14 24 -25 33 -25 10 0 26 -9 38 -19 11 -10 34 -26 52 -35 46
-24 57 -54 40 -113 -20 -75 -44 -90 -76 -50 -19 24 -115 97 -128 97 -10 0 -55
43 -55 54 0 5 -8 15 -17 23 -17 12 -15 16 27 53 53 47 64 49 86 15z m2739 -75
c6 -51 4 -63 -15 -90 -17 -23 -29 -30 -56 -30 -28 0 -36 -5 -44 -25 -12 -32
-40 -33 -40 -2 1 26 25 61 37 54 5 -3 15 -2 23 4 11 6 8 9 -12 9 -23 0 -28 5
-28 24 0 19 6 25 33 29 17 2 38 0 45 -6 7 -5 15 -7 18 -4 9 9 -5 27 -22 27
-20 0 -18 47 4 59 39 23 50 14 57 -49z m-2982 -45 c12 -5 16 -14 12 -29 -2
-11 -2 -15 1 -8 8 17 39 15 54 -3 10 -12 8 -24 -6 -60 -16 -38 -23 -45 -48
-45 -27 0 -28 2 -24 40 2 22 1 40 -2 40 -3 0 -13 -19 -22 -41 -12 -29 -15 -47
-8 -59 14 -26 12 -33 -4 -27 -17 7 -40 -42 -33 -70 4 -14 5 -14 6 5 1 15 7 22
21 22 23 0 27 -28 5 -36 -17 -7 -21 -89 -5 -99 20 -12 10 -45 -20 -60 -37 -19
-42 -19 -39 3 3 20 -21 72 -33 72 -4 0 -8 8 -8 18 0 9 -12 42 -26 72 -18 39
-24 64 -19 86 8 47 27 57 88 51 34 -4 43 -3 27 3 -14 4 -37 8 -53 9 -25 1
-117 72 -117 90 0 3 12 14 28 24 22 15 42 17 117 13 50 -2 98 -8 108 -11z
m712 -106 c77 -40 85 -47 85 -75 0 -49 -63 -344 -73 -344 -8 0 -199 190 -301
300 -27 28 -21 38 44 81 123 80 155 85 245 38z m639 -84 c69 -67 77 -79 74
-108 -3 -29 -6 -32 -41 -35 -30 -3 -37 -7 -33 -19 4 -9 -3 -24 -16 -37 -13
-11 -30 -31 -38 -42 -8 -12 -30 -24 -47 -28 -28 -5 -33 -2 -33 13 0 23 -17 38
-49 43 -20 2 -34 21 -69 89 l-43 85 18 32 c26 46 133 82 147 50 4 -9 10 -6 22
10 9 12 20 22 23 22 4 0 42 -34 85 -75z m-1085 -31 c2 -2 -11 -21 -30 -42 -36
-40 -110 -82 -146 -82 -12 0 -23 -4 -25 -8 -5 -13 -58 -24 -58 -13 0 5 4 12 9
15 5 4 4 19 -2 37 -11 27 -10 32 13 49 21 16 26 17 28 4 2 -8 8 -11 14 -8 5 3
25 -2 44 -12 33 -18 34 -18 49 1 8 11 13 30 10 42 -4 15 0 23 12 26 17 4 74
-2 82 -9z m51 -49 c-17 -19 -20 -25 -8 -25 8 0 21 -11 28 -25 7 -14 17 -25 22
-25 17 0 7 -27 -24 -64 -26 -31 -31 -47 -29 -78 2 -29 -1 -38 -13 -38 -45 0
-63 128 -25 181 11 17 19 33 16 35 -3 3 -10 -4 -17 -15 -10 -21 -40 -29 -40
-12 0 8 99 90 109 91 3 0 -6 -11 -19 -25z m-160 -104 c0 -23 -23 -66 -46 -88
-18 -17 -21 -23 -10 -23 10 0 16 -9 16 -25 0 -34 -38 -127 -58 -144 -15 -12
-15 -12 6 -6 30 9 28 -9 -4 -34 -30 -24 -27 -26 11 -9 14 6 25 15 25 20 0 5
12 8 28 6 22 -2 30 -11 41 -44 12 -35 12 -45 0 -72 -12 -28 -46 -49 -58 -36
-3 2 5 25 17 49 21 43 21 45 3 45 -11 0 -21 5 -23 12 -3 8 -11 7 -28 -5 -14
-9 -35 -17 -47 -17 -19 0 -23 5 -23 30 0 17 7 33 18 40 14 8 11 9 -12 4 -31
-7 -46 6 -46 44 0 17 6 22 28 22 40 0 59 33 37 67 -9 13 -15 26 -13 27 2 1 14
7 28 14 24 11 24 11 -5 5 -16 -3 -34 -11 -40 -18 -5 -6 -22 -16 -37 -23 -22
-9 -28 -9 -28 1 0 26 25 67 40 64 10 -1 14 5 12 19 -4 28 26 52 84 68 61 17
84 19 84 7z m849 -83 c5 -13 28 -63 52 -113 52 -110 63 -161 40 -178 -32 -23
-35 -38 -7 -31 25 6 26 4 26 -35 0 -23 -5 -41 -11 -41 -6 0 -33 10 -60 21 -27
12 -52 19 -56 15 -3 -3 2 -6 11 -6 15 0 17 -6 13 -32 -2 -18 0 -41 5 -51 7
-14 4 -22 -14 -37 -13 -11 -26 -19 -30 -20 -11 0 -50 140 -44 156 3 8 -1 14
-8 14 -19 0 -25 28 -32 168 -7 127 -4 138 35 113 16 -10 41 26 41 60 0 26 29
24 39 -3z m1331 -27 c0 -22 -4 -43 -10 -46 -5 -3 -10 -17 -10 -29 0 -20 -6
-25 -37 -28 -62 -7 -123 38 -123 91 0 22 39 39 60 26 6 -4 16 -2 23 3 7 6 28
12 47 15 19 2 38 5 43 5 4 1 7 -16 7 -37z m193 -45 c23 -18 22 -40 -3 -33 -19
5 -19 4 -2 -18 13 -17 20 -20 33 -12 14 8 23 4 49 -24 45 -48 53 -73 36 -113
-14 -33 -13 -33 13 -29 l26 4 -24 -20 c-25 -22 -75 -31 -53 -9 8 8 8 17 0 31
-9 18 -6 24 18 44 16 13 25 23 20 23 -5 0 -18 -8 -29 -17 -18 -17 -20 -17 -40
12 -12 16 -25 38 -28 49 -3 12 -12 20 -19 18 -24 -6 -50 30 -50 70 0 41 18 50
53 24z m-559 -93 c3 -10 17 -31 31 -47 14 -16 25 -38 25 -49 0 -23 -61 -126
-75 -127 -37 0 -60 144 -30 184 8 11 15 28 15 38 0 23 27 24 34 1z m-1653
-133 c5 0 9 -17 9 -37 0 -52 -31 -83 -76 -76 -20 3 -40 1 -49 -7 -21 -17 -45
-5 -45 22 1 13 9 38 19 57 l18 33 22 -28 c19 -26 21 -27 19 -7 -2 12 7 32 21
47 20 22 25 23 38 10 8 -7 19 -14 24 -14z m280 -18 c13 -23 13 -33 2 -72 -16
-54 -10 -79 7 -32 7 18 17 31 24 29 15 -6 9 -99 -7 -109 -19 -12 -29 -9 -34
12 -4 13 -14 20 -30 20 -16 0 -27 -7 -30 -20 -11 -42 -43 -16 -43 35 0 13 -4
27 -10 30 -18 11 -11 53 12 69 22 16 23 15 34 -21 l12 -38 1 43 c2 78 33 106
62 54z"/>
<path d="M1116 3049 c-3 -8 -61 -174 -130 -369 -68 -195 -157 -449 -197 -564
-40 -115 -82 -220 -93 -233 -15 -17 -37 -25 -79 -31 -32 -4 -57 -11 -57 -17 0
-5 11 -8 23 -6 12 2 69 3 127 1 194 -6 213 -5 217 6 2 7 -24 14 -69 20 l-73 9
-3 35 c-1 22 16 88 46 175 l48 140 192 3 191 2 52 -160 c39 -121 49 -164 41
-172 -7 -7 -50 -14 -96 -17 -90 -6 -102 -11 -92 -36 5 -13 15 -14 58 -8 61 9
293 8 614 -2 315 -10 423 11 524 102 114 102 156 251 114 408 -39 152 -144
248 -300 276 -85 15 -477 18 -484 4 -3 -5 6 -11 20 -13 14 -1 35 -5 48 -7 l22
-5 0 -358 c0 -196 -4 -363 -8 -370 -12 -18 -166 -5 -193 17 -18 14 -223 550
-389 1016 -56 157 -66 178 -74 154z m19 -469 c31 -91 68 -194 81 -229 13 -35
24 -67 24 -72 0 -5 -76 -9 -170 -9 -99 0 -170 4 -170 9 0 6 32 101 71 213 39
112 76 218 82 236 6 18 14 29 17 25 4 -5 33 -82 65 -173z m1006 5 c104 -36
161 -121 181 -268 31 -228 -48 -408 -196 -452 -60 -18 -177 -20 -194 -3 -17
17 -17 709 0 726 17 17 155 15 209 -3z"/>
<path d="M9473 3050 c-272 -49 -453 -291 -453 -605 0 -185 54 -333 166 -453
135 -146 318 -207 502 -168 103 22 180 66 261 151 129 137 177 277 168 494 -7
187 -51 300 -163 421 -65 69 -129 113 -209 140 -68 24 -198 33 -272 20z m202
-37 c96 -32 171 -134 221 -298 26 -85 28 -101 28 -290 0 -173 -3 -210 -21
-276 -43 -154 -105 -242 -201 -287 -70 -32 -182 -29 -254 6 -100 49 -179 167
-215 319 -27 117 -24 418 5 525 44 163 123 273 218 302 66 20 160 20 219 -1z"/>
<path d="M2537 2634 c-14 -14 6 -24 47 -24 24 0 48 -6 54 -13 6 -7 70 -168
142 -358 154 -406 160 -421 174 -416 6 2 54 120 107 263 133 360 190 503 203
511 6 4 29 10 50 13 22 3 41 11 44 19 3 10 -6 12 -44 7 -60 -7 -65 -7 -132 0
-57 6 -102 -1 -102 -16 0 -5 24 -10 53 -12 44 -3 52 -6 55 -24 3 -19 -124
-375 -176 -494 -19 -44 -20 -45 -30 -20 -5 14 -44 120 -86 235 -43 116 -84
227 -92 248 -8 21 -12 43 -9 48 4 5 32 9 63 9 62 0 96 12 67 24 -22 8 -380 8
-388 0z"/>
<path d="M8218 2627 c-99 -28 -158 -106 -158 -208 0 -91 33 -132 165 -200 183
-96 215 -129 215 -224 0 -99 -47 -145 -150 -145 -102 0 -166 56 -198 173 -27
104 -42 98 -44 -17 -4 -170 -3 -179 9 -183 6 -2 14 10 18 27 5 24 11 30 23 24
102 -42 122 -47 192 -48 158 -1 280 99 280 229 0 98 -48 148 -230 240 -135 68
-170 106 -170 186 0 79 51 129 132 129 75 0 140 -58 170 -149 26 -81 37 -61
33 61 -2 70 -7 114 -14 116 -6 2 -11 0 -11 -5 0 -5 -6 -17 -13 -26 -11 -17
-15 -16 -54 3 -54 26 -136 33 -195 17z"/>
<path d="M3387 2624 c-13 -14 5 -24 43 -24 25 0 40 -5 44 -16 3 -9 6 -172 6
-364 0 -266 -3 -350 -13 -358 -6 -6 -28 -12 -47 -14 -19 -2 -35 -7 -35 -13 0
-6 118 -11 328 -13 l328 -2 -3 115 c-2 63 -7 116 -13 118 -5 1 -15 -26 -22
-61 -25 -127 -39 -135 -234 -140 l-149 -4 0 196 0 196 73 0 c114 0 122 -8 152
-152 3 -16 10 -28 15 -28 6 0 10 72 10 190 0 111 -4 190 -9 190 -11 0 -17 -17
-26 -77 -12 -74 -30 -87 -129 -92 l-86 -3 0 166 0 166 120 0 c177 0 206 -17
240 -141 30 -110 41 -62 24 109 l-6 62 -302 0 c-167 0 -306 -3 -309 -6z"/>
<path d="M4072 2618 c3 -7 18 -14 34 -16 105 -10 104 -5 104 -411 0 -366 5
-341 -70 -341 -41 0 -62 -16 -36 -26 9 -3 41 -2 71 3 33 6 77 6 111 1 33 -5
62 -5 72 1 14 8 15 10 2 15 -8 3 -33 7 -54 8 -35 3 -41 7 -48 35 -5 18 -7 159
-6 315 l3 283 90 -125 c309 -431 398 -545 417 -534 5 3 8 171 7 374 -1 375 -1
380 -35 380 -2 0 -4 -118 -4 -262 0 -195 -3 -259 -11 -251 -7 7 -100 135 -209
285 l-197 273 -122 3 c-96 2 -122 0 -119 -10z"/>
<path d="M5686 2623 c-4 -4 12 -12 36 -18 l43 -10 5 -295 c5 -274 7 -298 26
-341 42 -90 128 -131 274 -133 147 -1 218 39 267 151 14 32 18 86 23 328 l5
290 45 5 c25 3 44 10 43 15 -4 13 -233 19 -233 6 0 -12 25 -21 61 -21 l30 0
-3 -302 c-3 -341 -6 -352 -80 -412 -65 -51 -191 -49 -252 4 -55 49 -61 87 -61
415 l0 290 38 5 c21 3 38 10 37 15 0 12 -292 19 -304 8z"/>
<path d="M6530 2621 c0 -6 11 -11 24 -11 14 0 36 -4 50 -10 l26 -10 0 -364 c0
-403 5 -376 -67 -376 -23 0 -33 -4 -31 -12 6 -17 326 -24 342 -8 7 7 0 10 -21
10 -18 0 -43 4 -57 10 l-26 10 0 191 0 192 47 -7 c58 -8 104 -34 121 -70 8
-15 19 -69 27 -120 14 -103 30 -142 75 -180 54 -45 166 -58 207 -24 21 17 16
56 -7 63 -27 9 -52 -12 -45 -36 8 -24 -17 -26 -39 -4 -17 18 -36 77 -36 115 0
44 -30 143 -53 177 -27 40 -78 69 -148 84 l-54 12 62 13 c119 25 195 85 208
163 5 33 2 51 -17 89 -19 39 -33 52 -82 77 l-60 30 -223 3 c-157 3 -223 1
-223 -7z m406 -51 c58 -54 71 -146 31 -220 -27 -51 -77 -81 -148 -88 l-49 -5
0 165 c0 91 3 168 8 172 4 4 35 6 69 4 49 -3 68 -9 89 -28z"/>
<path d="M7297 2624 c-13 -14 5 -24 43 -24 25 0 40 -5 44 -16 3 -9 6 -172 6
-364 0 -266 -3 -350 -13 -358 -6 -6 -28 -12 -47 -14 -19 -2 -35 -7 -35 -13 0
-6 118 -11 328 -13 l328 -2 -3 115 c-2 63 -7 116 -13 118 -5 1 -15 -26 -22
-61 -25 -127 -39 -135 -234 -140 l-149 -4 0 196 0 196 73 0 c114 0 122 -8 152
-152 3 -16 10 -28 15 -28 6 0 10 72 10 190 0 111 -4 190 -9 190 -11 0 -17 -17
-26 -77 -12 -74 -30 -87 -129 -92 l-86 -3 0 166 0 166 120 0 c177 0 206 -17
240 -141 30 -110 41 -62 24 109 l-6 62 -302 0 c-167 0 -306 -3 -309 -6z"/>
<path d="M10202 2618 c3 -7 18 -14 34 -16 105 -10 104 -5 104 -411 l0 -331
-22 -5 c-13 -2 -39 -6 -58 -7 -45 -4 -36 -24 10 -21 44 2 146 2 185 0 50 -3
39 18 -12 23 -43 5 -48 8 -55 37 -5 18 -7 159 -6 315 l3 283 90 -125 c308
-430 398 -545 417 -534 4 3 8 178 8 389 l0 384 48 3 c26 2 46 8 45 13 -2 6
-50 10 -118 10 -68 0 -116 -4 -117 -10 -2 -5 17 -11 42 -13 24 -2 48 -9 52
-15 13 -21 10 -533 -3 -520 -7 7 -100 135 -209 285 l-197 273 -122 3 c-96 2
-122 0 -119 -10z"/>
<path d="M11076 2621 c-7 -11 18 -21 54 -21 25 0 30 -5 35 -32 3 -18 4 -186 3
-372 l-3 -340 -48 -10 c-27 -6 -46 -14 -42 -18 4 -4 154 -5 334 -2 l326 5 3
82 c5 145 -20 197 -43 86 -24 -116 -50 -131 -248 -137 l-137 -4 2 368 c3 360
3 369 23 372 49 7 65 13 60 22 -8 13 -312 13 -319 1z"/>
<path d="M11807 2623 c-16 -15 -4 -22 41 -25 l47 -3 0 -370 0 -370 -42 -6
c-47 -6 -63 -16 -42 -24 26 -10 319 -1 322 10 1 6 -14 11 -33 13 -19 2 -41 8
-47 14 -10 8 -13 94 -13 369 0 344 1 359 19 369 11 5 31 10 45 10 14 0 26 5
26 10 0 11 -312 14 -323 3z"/>
<path d="M12182 2618 c3 -7 18 -14 34 -16 105 -10 104 -5 104 -411 l0 -331
-22 -5 c-13 -2 -39 -6 -58 -7 -45 -4 -36 -24 10 -21 44 2 146 2 185 0 50 -3
39 18 -12 23 -43 5 -48 8 -55 37 -5 18 -7 159 -6 315 l3 283 90 -125 c308
-430 398 -545 417 -534 4 3 8 178 8 389 l0 384 48 3 c26 2 46 8 45 13 -2 6
-50 10 -118 10 -68 0 -116 -4 -117 -10 -2 -5 17 -11 42 -13 24 -2 48 -9 52
-15 13 -21 10 -533 -3 -520 -7 7 -100 135 -209 285 l-197 273 -122 3 c-96 2
-122 0 -119 -10z"/>
<path d="M13057 2624 c-13 -14 5 -24 43 -24 25 0 40 -5 44 -16 3 -9 6 -172 6
-364 0 -266 -3 -350 -13 -358 -6 -6 -28 -12 -47 -14 -19 -2 -35 -7 -35 -13 0
-6 118 -11 328 -13 l328 -2 -3 115 c-2 63 -7 116 -13 118 -5 1 -15 -26 -22
-61 -25 -127 -39 -135 -234 -140 l-149 -4 0 196 0 196 73 0 c114 0 122 -8 152
-152 3 -16 10 -28 15 -28 6 0 10 72 10 190 0 111 -4 190 -9 190 -11 0 -17 -17
-26 -77 -12 -74 -30 -87 -129 -92 l-86 -3 0 166 0 166 120 0 c177 0 206 -17
240 -141 30 -110 41 -62 24 109 l-6 62 -302 0 c-167 0 -306 -3 -309 -6z"/>
</g>
</svg>
